<svg xmlns:xlink="http://www.w3.org/1999/xlink" width="78.602ex" height="8.843ex" style="font-size: 15px; vertical-align: -3.506ex; margin-bottom: -0.332ex;" viewBox="0 -2154.8 33842.3 3807.2" role="img" focusable="false" xmlns="http://www.w3.org/2000/svg">
<defs>
<path stroke-width="1" id="E1-MJMAIN-28" d="M94 250Q94 319 104 381T127 488T164 576T202 643T244 695T277 729T302 750H315H319Q333 750 333 741Q333 738 316 720T275 667T226 581T184 443T167 250T184 58T225 -81T274 -167T316 -220T333 -241Q333 -250 318 -250H315H302L274 -226Q180 -141 137 -14T94 250Z"></path>
<path stroke-width="1" id="E1-MJMAIN-35" d="M164 157Q164 133 148 117T109 101H102Q148 22 224 22Q294 22 326 82Q345 115 345 210Q345 313 318 349Q292 382 260 382H254Q176 382 136 314Q132 307 129 306T114 304Q97 304 95 310Q93 314 93 485V614Q93 664 98 664Q100 666 102 666Q103 666 123 658T178 642T253 634Q324 634 389 662Q397 666 402 666Q410 666 410 648V635Q328 538 205 538Q174 538 149 544L139 546V374Q158 388 169 396T205 412T256 420Q337 420 393 355T449 201Q449 109 385 44T229 -22Q148 -22 99 32T50 154Q50 178 61 192T84 210T107 214Q132 214 148 197T164 157Z"></path>
<path stroke-width="1" id="E1-MJMAIN-2E" d="M78 60Q78 84 95 102T138 120Q162 120 180 104T199 61Q199 36 182 18T139 0T96 17T78 60Z"></path>
<path stroke-width="1" id="E1-MJMAIN-34" d="M462 0Q444 3 333 3Q217 3 199 0H190V46H221Q241 46 248 46T265 48T279 53T286 61Q287 63 287 115V165H28V211L179 442Q332 674 334 675Q336 677 355 677H373L379 671V211H471V165H379V114Q379 73 379 66T385 54Q393 47 442 46H471V0H462ZM293 211V545L74 212L183 211H293Z"></path>
<path stroke-width="1" id="E1-MJMAIN-29" d="M60 749L64 750Q69 750 74 750H86L114 726Q208 641 251 514T294 250Q294 182 284 119T261 12T224 -76T186 -143T145 -194T113 -227T90 -246Q87 -249 86 -250H74Q66 -250 63 -250T58 -247T55 -238Q56 -237 66 -225Q221 -64 221 250T66 725Q56 737 55 738Q55 746 60 749Z"></path>
<path stroke-width="1" id="E1-MJMATHI-3B4" d="M195 609Q195 656 227 686T302 717Q319 716 351 709T407 697T433 690Q451 682 451 662Q451 644 438 628T403 612Q382 612 348 641T288 671T249 657T235 628Q235 584 334 463Q401 379 401 292Q401 169 340 80T205 -10H198Q127 -10 83 36T36 153Q36 286 151 382Q191 413 252 434Q252 435 245 449T230 481T214 521T201 566T195 609ZM112 130Q112 83 136 55T204 27Q233 27 256 51T291 111T309 178T316 232Q316 267 309 298T295 344T269 400L259 396Q215 381 183 342T137 256T118 179T112 130Z"></path>
<path stroke-width="1" id="E1-MJMAIN-50" d="M130 622Q123 629 119 631T103 634T60 637H27V683H214Q237 683 276 683T331 684Q419 684 471 671T567 616Q624 563 624 489Q624 421 573 372T451 307Q429 302 328 301H234V181Q234 62 237 58Q245 47 304 46H337V0H326Q305 3 182 3Q47 3 38 0H27V46H60Q102 47 111 49T130 61V622ZM507 488Q507 514 506 528T500 564T483 597T450 620T397 635Q385 637 307 637H286Q237 637 234 628Q231 624 231 483V342H302H339Q390 342 423 349T481 382Q507 411 507 488Z"></path>
<path stroke-width="1" id="E1-MJMAIN-44" d="M130 622Q123 629 119 631T103 634T60 637H27V683H228Q399 682 419 682T461 676Q504 667 546 641T626 573T685 470T708 336Q708 210 634 116T442 3Q429 1 228 0H27V46H60Q102 47 111 49T130 61V622ZM593 338Q593 439 571 501T493 602Q439 637 355 637H322H294Q238 637 234 628Q231 624 231 344Q231 62 232 59Q233 49 248 48T339 46H350Q456 46 515 95Q561 133 577 191T593 338Z"></path>
<path stroke-width="1" id="E1-MJMAIN-2191" d="M27 414Q17 414 17 433Q17 437 17 439T17 444T19 447T20 450T22 452T26 453T30 454T36 456Q80 467 120 494T180 549Q227 607 238 678Q240 694 251 694Q259 694 261 684Q261 677 265 659T284 608T320 549Q340 525 363 507T405 479T440 463T467 455T479 451Q483 447 483 433Q483 413 472 413Q467 413 458 416Q342 448 277 545L270 555V-179Q262 -193 252 -193H250H248Q236 -193 230 -179V555L223 545Q192 499 146 467T70 424T27 414Z"></path>
<path stroke-width="1" id="E1-MJMAIN-2192" d="M56 237T56 250T70 270H835Q719 357 692 493Q692 494 692 496T691 499Q691 511 708 511H711Q720 511 723 510T729 506T732 497T735 481T743 456Q765 389 816 336T935 261Q944 258 944 250Q944 244 939 241T915 231T877 212Q836 186 806 152T761 85T740 35T732 4Q730 -6 727 -8T711 -11Q691 -11 691 0Q691 7 696 25Q728 151 835 230H70Q56 237 56 250Z"></path>
<path stroke-width="1" id="E1-MJMAIN-3D" d="M56 347Q56 360 70 367H707Q722 359 722 347Q722 336 708 328L390 327H72Q56 332 56 347ZM56 153Q56 168 72 173H708Q722 163 722 153Q722 140 707 133H70Q56 140 56 153Z"></path>
<path stroke-width="1" id="E1-MJMAIN-30" d="M96 585Q152 666 249 666Q297 666 345 640T423 548Q460 465 460 320Q460 165 417 83Q397 41 362 16T301 -15T250 -22Q224 -22 198 -16T137 16T82 83Q39 165 39 320Q39 494 96 585ZM321 597Q291 629 250 629Q208 629 178 597Q153 571 145 525T137 333Q137 175 145 125T181 46Q209 16 250 16Q290 16 318 46Q347 76 354 130T362 333Q362 478 354 524T321 597Z"></path>
<path stroke-width="1" id="E1-MJMAIN-2C" d="M78 35T78 60T94 103T137 121Q165 121 187 96T210 8Q210 -27 201 -60T180 -117T154 -158T130 -185T117 -194Q113 -194 104 -185T95 -172Q95 -168 106 -156T131 -126T157 -76T173 -3V9L172 8Q170 7 167 6T161 3T152 1T140 0Q113 0 96 17Z"></path>
<path stroke-width="1" id="E1-MJMAIN-2B" d="M56 237T56 250T70 270H369V420L370 570Q380 583 389 583Q402 583 409 568V270H707Q722 262 722 250T707 230H409V-68Q401 -82 391 -82H389H387Q375 -82 369 -68V230H70Q56 237 56 250Z"></path>
<path stroke-width="1" id="E1-MJMAIN-70" d="M36 -148H50Q89 -148 97 -134V-126Q97 -119 97 -107T97 -77T98 -38T98 6T98 55T98 106Q98 140 98 177T98 243T98 296T97 335T97 351Q94 370 83 376T38 385H20V408Q20 431 22 431L32 432Q42 433 61 434T98 436Q115 437 135 438T165 441T176 442H179V416L180 390L188 397Q247 441 326 441Q407 441 464 377T522 216Q522 115 457 52T310 -11Q242 -11 190 33L182 40V-45V-101Q182 -128 184 -134T195 -145Q216 -148 244 -148H260V-194H252L228 -193Q205 -192 178 -192T140 -191Q37 -191 28 -194H20V-148H36ZM424 218Q424 292 390 347T305 402Q234 402 182 337V98Q222 26 294 26Q345 26 384 80T424 218Z"></path>
<path stroke-width="1" id="E1-MJMAIN-61" d="M137 305T115 305T78 320T63 359Q63 394 97 421T218 448Q291 448 336 416T396 340Q401 326 401 309T402 194V124Q402 76 407 58T428 40Q443 40 448 56T453 109V145H493V106Q492 66 490 59Q481 29 455 12T400 -6T353 12T329 54V58L327 55Q325 52 322 49T314 40T302 29T287 17T269 6T247 -2T221 -8T190 -11Q130 -11 82 20T34 107Q34 128 41 147T68 188T116 225T194 253T304 268H318V290Q318 324 312 340Q290 411 215 411Q197 411 181 410T156 406T148 403Q170 388 170 359Q170 334 154 320ZM126 106Q126 75 150 51T209 26Q247 26 276 49T315 109Q317 116 318 175Q318 233 317 233Q309 233 296 232T251 223T193 203T147 166T126 106Z"></path>
<path stroke-width="1" id="E1-MJMAIN-73" d="M295 316Q295 356 268 385T190 414Q154 414 128 401Q98 382 98 349Q97 344 98 336T114 312T157 287Q175 282 201 278T245 269T277 256Q294 248 310 236T342 195T359 133Q359 71 321 31T198 -10H190Q138 -10 94 26L86 19L77 10Q71 4 65 -1L54 -11H46H42Q39 -11 33 -5V74V132Q33 153 35 157T45 162H54Q66 162 70 158T75 146T82 119T101 77Q136 26 198 26Q295 26 295 104Q295 133 277 151Q257 175 194 187T111 210Q75 227 54 256T33 318Q33 357 50 384T93 424T143 442T187 447H198Q238 447 268 432L283 424L292 431Q302 440 314 448H322H326Q329 448 335 442V310L329 304H301Q295 310 295 316Z"></path>
<path stroke-width="1" id="E1-MJMATHI-72" d="M21 287Q22 290 23 295T28 317T38 348T53 381T73 411T99 433T132 442Q161 442 183 430T214 408T225 388Q227 382 228 382T236 389Q284 441 347 441H350Q398 441 422 400Q430 381 430 363Q430 333 417 315T391 292T366 288Q346 288 334 299T322 328Q322 376 378 392Q356 405 342 405Q286 405 239 331Q229 315 224 298T190 165Q156 25 151 16Q138 -11 108 -11Q95 -11 87 -5T76 7T74 17Q74 30 114 189T154 366Q154 405 128 405Q107 405 92 377T68 316T57 280Q55 278 41 278H27Q21 284 21 287Z"></path>
<path stroke-width="1" id="E1-MJMAIN-2212" d="M84 237T84 250T98 270H679Q694 262 694 250T679 230H98Q84 237 84 250Z"></path>
<path stroke-width="1" id="E1-MJAMS-25B2" d="M99 -20Q84 -11 84 0Q84 5 148 145T278 424L342 563Q347 575 360 575Q368 575 375 570Q376 569 441 430T571 148T637 0Q637 -11 622 -20H99Z"></path>
<path stroke-width="1" id="E1-MJMAIN-32" d="M109 429Q82 429 66 447T50 491Q50 562 103 614T235 666Q326 666 387 610T449 465Q449 422 429 383T381 315T301 241Q265 210 201 149L142 93L218 92Q375 92 385 97Q392 99 409 186V189H449V186Q448 183 436 95T421 3V0H50V19V31Q50 38 56 46T86 81Q115 113 136 137Q145 147 170 174T204 211T233 244T261 278T284 308T305 340T320 369T333 401T340 431T343 464Q343 527 309 573T212 619Q179 619 154 602T119 569T109 550Q109 549 114 549Q132 549 151 535T170 489Q170 464 154 447T109 429Z"></path>
<path stroke-width="1" id="E1-MJAMS-29EB" d="M318 709Q325 716 332 716Q340 716 344 713T474 511Q611 298 611 292Q611 285 526 152Q494 103 474 72Q347 -128 344 -130Q340 -132 333 -132T322 -130Q319 -128 257 -31T131 169T60 278Q56 285 56 292Q56 298 60 305Q73 326 194 516T318 709Z"></path>
</defs>
<g stroke="currentColor" fill="currentColor" stroke-width="0" transform="matrix(1 0 0 -1 0 0)">
<g transform="translate(30225,0)">
<g id="mjx-eqn-5.4.4.5">
 <use xlink:href="#E1-MJMAIN-28"></use>
 <use xlink:href="#E1-MJMAIN-35" x="389" y="0"></use>
 <use xlink:href="#E1-MJMAIN-2E" x="890" y="0"></use>
 <use xlink:href="#E1-MJMAIN-34" x="1168" y="0"></use>
 <use xlink:href="#E1-MJMAIN-2E" x="1669" y="0"></use>
 <use xlink:href="#E1-MJMAIN-34" x="1947" y="0"></use>
 <use xlink:href="#E1-MJMAIN-2E" x="2448" y="0"></use>
 <use xlink:href="#E1-MJMAIN-35" x="2726" y="0"></use>
 <use xlink:href="#E1-MJMAIN-29" x="3227" y="0"></use>
</g>
</g>
<g transform="translate(167,0)">
<g transform="translate(-11,0)">
<g transform="translate(167,0)">
<g transform="translate(-11,0)">
<g transform="translate(9847,1115)">
 <use xlink:href="#E1-MJMATHI-3B4" x="0" y="0"></use>
<g transform="translate(444,-150)">
 <use transform="scale(0.707)" xlink:href="#E1-MJMAIN-50" x="0" y="0"></use>
 <use transform="scale(0.707)" xlink:href="#E1-MJMAIN-2E" x="681" y="0"></use>
 <use transform="scale(0.707)" xlink:href="#E1-MJMAIN-44" x="960" y="0"></use>
 <use transform="scale(0.707)" xlink:href="#E1-MJMAIN-2E" x="1724" y="0"></use>
</g>
 <use xlink:href="#E1-MJMAIN-2191" x="2238" y="0"></use>
 <use xlink:href="#E1-MJMAIN-2192" x="869" y="-886"></use>
 <use xlink:href="#E1-MJMAIN-3D" x="3016" y="0"></use>
<g transform="translate(4073,0)">
 <use xlink:href="#E1-MJMATHI-3B4" x="0" y="0"></use>
<g transform="translate(453,362)">
 <use transform="scale(0.707)" xlink:href="#E1-MJMAIN-28" x="0" y="0"></use>
 <use transform="scale(0.707)" xlink:href="#E1-MJMAIN-30" x="389" y="0"></use>
 <use transform="scale(0.707)" xlink:href="#E1-MJMAIN-2C" x="890" y="0"></use>
 <use transform="scale(0.707)" xlink:href="#E1-MJMAIN-2B" x="1168" y="0"></use>
 <use transform="scale(0.707)" xlink:href="#E1-MJMAIN-29" x="1947" y="0"></use>
 <use transform="scale(0.707)" xlink:href="#E1-MJMAIN-2192" x="2336" y="0"></use>
 <use transform="scale(0.707)" xlink:href="#E1-MJMAIN-28" x="3337" y="0"></use>
 <use transform="scale(0.707)" xlink:href="#E1-MJMAIN-30" x="3726" y="0"></use>
 <use transform="scale(0.707)" xlink:href="#E1-MJMAIN-2C" x="4227" y="0"></use>
 <use transform="scale(0.707)" xlink:href="#E1-MJMAIN-2B" x="4505" y="0"></use>
 <use transform="scale(0.707)" xlink:href="#E1-MJMAIN-29" x="5284" y="0"></use>
</g>
 <use xlink:href="#E1-MJMAIN-2191" x="4843" y="0"></use>
<g transform="translate(1509,-886)">
 <use xlink:href="#E1-MJMAIN-2192" x="0" y="0"></use>
<g transform="translate(1000,-150)">
 <use transform="scale(0.707)" xlink:href="#E1-MJMAIN-70" x="0" y="0"></use>
 <use transform="scale(0.707)" xlink:href="#E1-MJMAIN-61" x="556" y="0"></use>
 <use transform="scale(0.707)" xlink:href="#E1-MJMAIN-73" x="1057" y="0"></use>
 <use transform="scale(0.707)" xlink:href="#E1-MJMAIN-2E" x="1451" y="0"></use>
</g>
</g>
</g>
</g>
<g transform="translate(0,-1259)">
 <use xlink:href="#E1-MJMATHI-72" x="0" y="0"></use>
<g transform="translate(451,362)">
 <use transform="scale(0.707)" xlink:href="#E1-MJMAIN-2B" x="0" y="0"></use>
 <use transform="scale(0.707)" xlink:href="#E1-MJMAIN-2192" x="778" y="0"></use>
 <use transform="scale(0.707)" xlink:href="#E1-MJMAIN-2212" x="1779" y="0"></use>
</g>
<g transform="translate(2637,0)">
 <use xlink:href="#E1-MJMAIN-2191"></use>
 <use xlink:href="#E1-MJMAIN-3D" x="500" y="0"></use>
</g>
<g transform="translate(4194,0)">
 <use xlink:href="#E1-MJAMS-25B2" x="0" y="0"></use>
 <use transform="scale(0.707)" xlink:href="#E1-MJMAIN-2B" x="1021" y="513"></use>
</g>
 <use xlink:href="#E1-MJMAIN-2191" x="5845" y="0"></use>
<g transform="translate(6623,0)">
 <use xlink:href="#E1-MJMAIN-28"></use>
<g transform="translate(389,0)">
 <use xlink:href="#E1-MJMAIN-32" x="0" y="0"></use>
<g transform="translate(667,0)">
 <use xlink:href="#E1-MJAMS-29EB" x="0" y="0"></use>
 <use transform="scale(0.707)" xlink:href="#E1-MJMAIN-2B" x="943" y="513"></use>
</g>
 <use xlink:href="#E1-MJMAIN-2191" x="2262" y="0"></use>
<g transform="translate(3207,0)">
 <use xlink:href="#E1-MJMAIN-28"></use>
<g transform="translate(389,0)">
 <use xlink:href="#E1-MJAMS-25B2" x="0" y="0"></use>
 <use transform="scale(0.707)" xlink:href="#E1-MJMAIN-2B" x="1021" y="513"></use>
 <use xlink:href="#E1-MJMAIN-2191" x="1650" y="0"></use>
 <use xlink:href="#E1-MJMAIN-32" x="2595" y="0"></use>
</g>
 <use xlink:href="#E1-MJMAIN-29" x="3485" y="0"></use>
</g>
</g>
 <use xlink:href="#E1-MJMAIN-29" x="7472" y="0"></use>
</g>
 <use xlink:href="#E1-MJMAIN-3D" x="14763" y="0"></use>
<g transform="translate(15819,0)">
 <use xlink:href="#E1-MJAMS-25B2" x="0" y="0"></use>
 <use transform="scale(0.707)" xlink:href="#E1-MJMAIN-2B" x="1021" y="513"></use>
</g>
 <use xlink:href="#E1-MJMAIN-2191" x="17470" y="0"></use>
<g transform="translate(18248,0)">
 <use xlink:href="#E1-MJMAIN-28"></use>
<g transform="translate(389,0)">
 <use xlink:href="#E1-MJMAIN-32" x="0" y="0"></use>
<g transform="translate(667,0)">
 <use xlink:href="#E1-MJAMS-29EB" x="0" y="0"></use>
 <use transform="scale(0.707)" xlink:href="#E1-MJMAIN-2B" x="943" y="513"></use>
</g>
 <use xlink:href="#E1-MJMAIN-2191" x="2262" y="0"></use>
 <use xlink:href="#E1-MJMAIN-32" x="3207" y="0"></use>
</g>
 <use xlink:href="#E1-MJMAIN-29" x="4097" y="0"></use>
</g>
 <use xlink:href="#E1-MJMAIN-3D" x="23013" y="0"></use>
<g transform="translate(24070,0)">
 <use xlink:href="#E1-MJAMS-25B2" x="0" y="0"></use>
 <use transform="scale(0.707)" xlink:href="#E1-MJMAIN-2B" x="1021" y="513"></use>
</g>
 <use xlink:href="#E1-MJMAIN-2191" x="25720" y="0"></use>
 <use xlink:href="#E1-MJMAIN-34" x="26499" y="0"></use>
 <use xlink:href="#E1-MJMAIN-3D" x="27277" y="0"></use>
<g transform="translate(28333,0)">
 <use xlink:href="#E1-MJMAIN-34"></use>
 <use xlink:href="#E1-MJMAIN-2E" x="500" y="0"></use>
</g>
</g>
</g>
</g>
</g>
</g>
</g>
</svg>