<?xml version="1.0" encoding="UTF-8" standalone="no"?>
<!DOCTYPE svg PUBLIC "-//W3C//DTD SVG 1.1//EN" "http://www.w3.org/Graphics/SVG/1.1/DTD/svg11.dtd">
<svg width="100%" height="100%" viewBox="0 0 600 400" version="1.1" xmlns="http://www.w3.org/2000/svg" xmlns:xlink="http://www.w3.org/1999/xlink" xml:space="preserve" xmlns:serif="http://www.serif.com/" style="fill-rule:evenodd;clip-rule:evenodd;stroke-linejoin:round;">
    <rect x="0" y="0" width="600" height="400" style="fill:white;"/>
    <rect x="53.939" y="11.811" width="534.252" height="344.594" style="fill:white;"/>
    <path d="M69.059,356.405L69.059,11.811" style="fill:none;fill-rule:nonzero;stroke:black;stroke-opacity:0.1;stroke-width:0.5px;"/>
    <path d="M169.962,356.405L169.962,11.811" style="fill:none;fill-rule:nonzero;stroke:black;stroke-opacity:0.1;stroke-width:0.5px;"/>
    <path d="M270.865,356.405L270.865,11.811" style="fill:none;fill-rule:nonzero;stroke:black;stroke-opacity:0.1;stroke-width:0.5px;"/>
    <path d="M371.768,356.405L371.768,11.811" style="fill:none;fill-rule:nonzero;stroke:black;stroke-opacity:0.1;stroke-width:0.5px;"/>
    <path d="M472.67,356.405L472.67,11.811" style="fill:none;fill-rule:nonzero;stroke:black;stroke-opacity:0.1;stroke-width:0.5px;"/>
    <path d="M573.573,356.405L573.573,11.811" style="fill:none;fill-rule:nonzero;stroke:black;stroke-opacity:0.1;stroke-width:0.5px;"/>
    <path d="M53.939,356.405L588.19,356.405" style="fill:none;fill-rule:nonzero;stroke:black;stroke-width:1px;"/>
    <path d="M69.059,356.405L69.059,351.68" style="fill:none;fill-rule:nonzero;stroke:black;stroke-width:1px;"/>
    <path d="M169.962,356.405L169.962,351.68" style="fill:none;fill-rule:nonzero;stroke:black;stroke-width:1px;"/>
    <path d="M270.865,356.405L270.865,351.68" style="fill:none;fill-rule:nonzero;stroke:black;stroke-width:1px;"/>
    <path d="M371.768,356.405L371.768,351.68" style="fill:none;fill-rule:nonzero;stroke:black;stroke-width:1px;"/>
    <path d="M472.67,356.405L472.67,351.68" style="fill:none;fill-rule:nonzero;stroke:black;stroke-width:1px;"/>
    <path d="M573.573,356.405L573.573,351.68" style="fill:none;fill-rule:nonzero;stroke:black;stroke-width:1px;"/>
    <g transform="matrix(1,0,0,1,69.0588,371.705)">
        <text x="-3.337px" y="0px" style="font-family:'ArialMT', 'Arial', sans-serif;font-size:12px;">0</text>
    </g>
    <g transform="matrix(1,0,0,1,169.962,371.705)">
        <text x="-6.674px" y="0px" style="font-family:'ArialMT', 'Arial', sans-serif;font-size:12px;">20</text>
    </g>
    <g transform="matrix(1,0,0,1,270.865,371.705)">
        <text x="-6.674px" y="0px" style="font-family:'ArialMT', 'Arial', sans-serif;font-size:12px;">40</text>
    </g>
    <g transform="matrix(1,0,0,1,371.767,371.705)">
        <text x="-6.674px" y="0px" style="font-family:'ArialMT', 'Arial', sans-serif;font-size:12px;">60</text>
    </g>
    <g transform="matrix(1,0,0,1,472.67,371.705)">
        <text x="-6.674px" y="0px" style="font-family:'ArialMT', 'Arial', sans-serif;font-size:12px;">80</text>
    </g>
    <g transform="matrix(1,0,0,1,573.572,371.705)">
        <text x="-10.011px" y="0px" style="font-family:'ArialMT', 'Arial', sans-serif;font-size:12px;">100</text>
    </g>
    <g transform="matrix(1,0,0,1,321.062,392.87)">
        <text x="-75.201px" y="0px" style="font-family:'ArialMT', 'Arial', sans-serif;font-size:16.5px;">serial passage times</text>
    </g>
    <path d="M53.939,346.652L588.19,346.652" style="fill:none;fill-rule:nonzero;stroke:black;stroke-opacity:0.1;stroke-width:0.5px;"/>
    <path d="M53.939,281.635L588.19,281.635" style="fill:none;fill-rule:nonzero;stroke:black;stroke-opacity:0.1;stroke-width:0.5px;"/>
    <path d="M53.939,216.617L588.19,216.617" style="fill:none;fill-rule:nonzero;stroke:black;stroke-opacity:0.1;stroke-width:0.5px;"/>
    <path d="M53.939,151.599L588.19,151.599" style="fill:none;fill-rule:nonzero;stroke:black;stroke-opacity:0.1;stroke-width:0.5px;"/>
    <path d="M53.939,86.581L588.19,86.581" style="fill:none;fill-rule:nonzero;stroke:black;stroke-opacity:0.1;stroke-width:0.5px;"/>
    <path d="M53.939,21.563L588.19,21.563" style="fill:none;fill-rule:nonzero;stroke:black;stroke-opacity:0.1;stroke-width:0.5px;"/>
    <path d="M53.939,356.405L53.939,11.811" style="fill:none;fill-rule:nonzero;stroke:black;stroke-width:1px;"/>
    <path d="M53.939,346.652L58.663,346.652" style="fill:none;fill-rule:nonzero;stroke:black;stroke-width:1px;"/>
    <path d="M53.939,281.635L58.663,281.635" style="fill:none;fill-rule:nonzero;stroke:black;stroke-width:1px;"/>
    <path d="M53.939,216.617L58.663,216.617" style="fill:none;fill-rule:nonzero;stroke:black;stroke-width:1px;"/>
    <path d="M53.939,151.599L58.663,151.599" style="fill:none;fill-rule:nonzero;stroke:black;stroke-width:1px;"/>
    <path d="M53.939,86.581L58.663,86.581" style="fill:none;fill-rule:nonzero;stroke:black;stroke-width:1px;"/>
    <path d="M53.939,21.563L58.663,21.563" style="fill:none;fill-rule:nonzero;stroke:black;stroke-width:1px;"/>
    <g transform="matrix(1,0,0,1,44.9385,351.027)">
        <text x="-16.682px" y="0px" style="font-family:'ArialMT', 'Arial', sans-serif;font-size:12px;">0.0</text>
    </g>
    <g transform="matrix(1,0,0,1,44.9385,286.01)">
        <text x="-16.682px" y="0px" style="font-family:'ArialMT', 'Arial', sans-serif;font-size:12px;">0.2</text>
    </g>
    <g transform="matrix(1,0,0,1,44.9385,220.992)">
        <text x="-16.682px" y="0px" style="font-family:'ArialMT', 'Arial', sans-serif;font-size:12px;">0.4</text>
    </g>
    <g transform="matrix(1,0,0,1,44.9385,155.974)">
        <text x="-16.682px" y="0px" style="font-family:'ArialMT', 'Arial', sans-serif;font-size:12px;">0.6</text>
    </g>
    <g transform="matrix(1,0,0,1,44.9385,90.956)">
        <text x="-16.682px" y="0px" style="font-family:'ArialMT', 'Arial', sans-serif;font-size:12px;">0.8</text>
    </g>
    <g transform="matrix(1,0,0,1,44.9385,25.9383)">
        <text x="-16.682px" y="0px" style="font-family:'ArialMT', 'Arial', sans-serif;font-size:12px;">1.0</text>
    </g>
    <g transform="matrix(-3.82857e-16,-1,1,-3.82857e-16,16.3215,184.108)">
        <text x="-86.689px" y="0px" style="font-family:'ArialMT', 'Arial', sans-serif;font-size:16.5px;">proportion of population</text>
    </g>
    <path d="M69.059,21.564L70.068,21.564L70.572,21.564L72.591,21.564L73.095,21.564L74.104,21.564L74.609,21.564L75.113,21.564L75.618,21.564L76.122,21.564L78.644,21.564L79.149,21.564L79.653,21.564L82.176,21.565L82.681,21.565L83.185,21.565L83.69,21.565L84.194,21.565L84.699,21.565L86.717,21.566L88.23,21.566L89.744,21.567L91.257,21.567L92.771,21.568L93.275,21.568L94.789,21.569L95.293,21.569L95.798,21.57L96.303,21.57L96.807,21.57L97.816,21.571L98.825,21.572L99.834,21.573L100.339,21.573L101.348,21.574L101.852,21.575L102.861,21.576L103.366,21.577L104.375,21.578L105.384,21.579L105.888,21.58L106.393,21.581L106.897,21.582L107.402,21.583L107.906,21.584L108.411,21.585L108.915,21.586L109.42,21.587L109.924,21.588L110.429,21.589L110.934,21.59L111.438,21.591L111.943,21.593L112.447,21.594L112.952,21.595L113.456,21.597L113.961,21.598L114.465,21.6L114.97,21.602L115.474,21.603L115.979,21.605L116.483,21.607L116.988,21.609L117.492,21.611L117.997,21.613L118.501,21.615L119.006,21.618L119.51,21.62L120.015,21.623L120.519,21.625L121.024,21.628L121.528,21.631L122.033,21.634L122.537,21.637L123.042,21.641L123.546,21.644L124.051,21.648L124.555,21.651L125.06,21.655L125.565,21.659L126.069,21.664L126.574,21.668L127.078,21.673L127.583,21.677L128.087,21.682L128.592,21.688L129.096,21.693L129.601,21.699L130.105,21.705L130.61,21.711L131.114,21.718L131.619,21.724L132.123,21.731L132.628,21.739L133.132,21.746L133.637,21.754L134.141,21.763L134.646,21.772L135.15,21.781L135.655,21.79L136.159,21.8L136.664,21.81L137.168,21.821L137.673,21.832L138.177,21.844L138.682,21.856L139.186,21.869L139.691,21.882L140.195,21.896L140.7,21.911L141.204,21.926L141.709,21.941L142.214,21.958L142.718,21.975L143.223,21.993L143.727,22.011L144.232,22.031L144.736,22.051L145.241,22.072L145.745,22.094L146.25,22.117L146.754,22.141L147.259,22.166L147.763,22.192L148.268,22.219L148.772,22.248L149.277,22.277L149.781,22.308L150.286,22.34L150.79,22.374L151.295,22.408L151.799,22.445L152.304,22.483L152.808,22.523L153.313,22.564L153.817,22.607L154.322,22.652L154.826,22.699L155.331,22.747L155.835,22.798L156.34,22.851L156.844,22.907L157.349,22.965L157.853,23.025L158.358,23.087L158.863,23.153L159.367,23.221L159.872,23.292L160.376,23.366L160.881,23.443L161.385,23.524L161.89,23.608L162.394,23.695L162.899,23.786L163.403,23.881L163.908,23.98L164.412,24.084L164.917,24.191L165.421,24.303L165.926,24.42L166.43,24.542L166.935,24.669L167.439,24.801L167.944,24.939L168.448,25.082L168.953,25.232L169.457,25.388L169.962,25.55L170.466,25.719L170.971,25.895L171.475,26.078L171.98,26.269L172.484,26.468L172.989,26.675L173.493,26.89L173.998,27.115L174.502,27.349L175.007,27.592L175.511,27.845L176.016,28.109L176.521,28.383L177.025,28.668L177.53,28.965L178.034,29.274L178.539,29.596L179.043,29.93L179.548,30.278L180.052,30.64L180.557,31.016L181.061,31.407L181.565,31.813L182.07,32.236L182.575,32.675L183.079,33.131L183.583,33.606L184.088,34.098L184.593,34.609L185.097,35.141L185.602,35.692L186.106,36.264L186.611,36.859L187.115,37.475L187.62,38.114L188.124,38.778L188.629,39.465L189.133,40.178L189.638,40.917L190.142,41.683L190.647,42.476L191.151,43.298L191.656,44.148L192.16,45.028L192.665,45.939L193.169,46.881L193.674,47.855L194.179,48.862L194.683,49.903L195.188,50.977L195.692,52.087L196.196,53.233L196.701,54.415L197.206,55.634L197.71,56.891L198.214,58.186L198.719,59.52L199.224,60.893L199.728,62.306L200.232,63.76L200.737,65.254L201.242,66.79L201.746,68.366L202.25,69.985L202.755,71.644L203.26,73.347L203.764,75.09L204.269,76.876L204.773,78.703L205.278,80.572L205.782,82.482L206.287,84.432L206.791,86.423L207.296,88.453L207.8,90.523L208.305,92.63L208.809,94.775L209.314,96.957L209.818,99.173L210.323,101.424L210.827,103.707L211.332,106.021L211.837,108.366L212.341,110.739L212.845,113.138L213.35,115.562L213.855,118.009L214.359,120.477L214.863,122.965L215.368,125.469L215.873,127.988L216.377,130.52L216.881,133.062L217.386,135.613L217.891,138.169L218.395,140.729L218.899,143.29L219.404,145.849L219.909,148.406L220.413,150.956L220.918,153.498L221.422,156.03L221.927,158.549L222.431,161.053L222.936,163.54L223.44,166.008L223.945,168.454L224.449,170.877L224.954,173.275L225.458,175.647L225.963,177.989L226.467,180.302L226.972,182.582L227.476,184.83L227.981,187.043L228.485,189.22L228.99,191.36L229.494,193.462L229.999,195.526L230.504,197.55L231.008,199.533L231.512,201.476L232.017,203.377L232.522,205.237L233.026,207.054L233.53,208.829L234.035,210.561L234.54,212.25L235.044,213.898L235.548,215.503L236.053,217.065L236.558,218.585L237.062,220.064L237.567,221.501L238.071,222.897L238.576,224.253L239.08,225.569L239.585,226.845L240.089,228.083L240.594,229.282L241.098,230.444L241.603,231.569L242.107,232.658L242.612,233.712L243.116,234.731L243.621,235.716L244.125,236.668L244.63,237.588L245.134,238.476L245.639,239.333L246.143,240.161L246.648,240.959L247.153,241.73L247.657,242.472L248.161,243.188L248.666,243.878L249.171,244.543L249.675,245.184L250.18,245.8L250.685,246.394L251.188,246.966L251.693,247.516L252.198,248.045L252.702,248.554L253.208,249.044L253.71,249.515L254.215,249.968L254.72,250.403L255.225,250.823L255.73,251.225L256.233,251.61L256.738,251.982L257.243,252.34L257.748,252.683L258.253,253.01L258.755,253.327L259.26,253.63L259.765,253.92L260.27,254.2L260.775,254.468L261.28,254.728L261.783,254.973L262.288,255.21L262.793,255.438L263.298,255.658L263.803,255.865L264.305,256.068L264.81,256.26L265.315,256.445L265.82,256.623L266.325,256.79L266.828,256.955L267.333,257.11L267.838,257.26L268.342,257.405L268.848,257.543L269.35,257.673L269.855,257.8L270.36,257.923L270.865,258.038L271.37,258.15L271.873,258.255L272.378,258.358L272.883,258.457L273.388,258.55L273.893,258.64L274.395,258.728L274.9,258.81L275.405,258.89L275.91,258.965L276.415,259.038L276.918,259.108L277.423,259.175L278.433,259.3L279.443,259.415L279.945,259.467L280.45,259.52L280.955,259.57L281.46,259.618L281.965,259.663L282.467,259.705L282.973,259.748L283.478,259.788L284.488,259.863L284.99,259.897L286,259.962L287.01,260.022L287.513,260.053L288.018,260.077L288.523,260.105L289.027,260.13L289.533,260.152L290.035,260.175L290.54,260.198L292.055,260.258L292.558,260.275L294.073,260.327L295.083,260.358L295.585,260.37L296.09,260.385L297.605,260.423L298.108,260.433L298.613,260.445L300.128,260.475L300.63,260.483L301.135,260.493L302.145,260.508L302.65,260.517L303.152,260.525L303.658,260.53L304.668,260.545L305.173,260.55L305.675,260.558L307.695,260.577L308.198,260.582L309.208,260.592L309.712,260.595L310.217,260.6L310.72,260.603L311.225,260.608L311.73,260.61L312.235,260.615L313.245,260.62L313.748,260.623L314.253,260.628L315.768,260.635L316.27,260.637L316.775,260.64L317.28,260.64L318.29,260.645L318.793,260.647L319.298,260.65L319.803,260.65L320.813,260.655L321.315,260.655L321.82,260.658L322.325,260.658L323.335,260.663L323.837,260.663L324.342,260.665L325.353,260.665L325.858,260.668L326.36,260.668L326.865,260.67L327.875,260.67L328.38,260.673L329.388,260.673L329.893,260.675L330.902,260.675L331.408,260.678L333.425,260.678L333.93,260.68L335.948,260.68L336.453,260.683L338.975,260.683L339.478,260.685L344.02,260.685L344.523,260.688L351.587,260.688L352.092,260.69L371.263,260.69L371.768,260.693L475.698,260.693L476.203,260.695L573.068,260.695" style="fill:none;fill-rule:nonzero;stroke:rgb(0,128,0);stroke-width:2px;"/>
    <path d="M69.059,346.652L76.122,346.652L76.626,346.65L89.744,346.65L90.249,346.648L95.798,346.648L96.303,346.645L100.339,346.645L100.843,346.643L103.366,346.643L103.87,346.64L105.384,346.64L105.888,346.638L107.402,346.638L107.906,346.635L109.42,346.635L109.924,346.633L110.934,346.633L111.438,346.63L111.943,346.63L112.447,346.628L113.456,346.628L113.961,346.625L114.465,346.625L114.97,346.623L115.474,346.623L115.979,346.62L116.483,346.62L117.492,346.615L117.997,346.615L119.006,346.61L119.51,346.61L121.024,346.603L121.528,346.603L123.546,346.592L125.06,346.585L125.565,346.58L127.078,346.573L127.583,346.568L128.087,346.565L128.592,346.56L129.096,346.558L130.105,346.548L130.61,346.545L132.123,346.53L132.628,346.525L133.132,346.518L134.141,346.508L134.646,346.5L135.15,346.495L137.673,346.458L138.177,346.448L138.682,346.44L141.204,346.39L141.709,346.378L142.214,346.368L143.223,346.342L143.727,346.328L144.232,346.315L145.241,346.285L145.745,346.268L146.25,346.253L147.259,346.217L147.763,346.198L148.268,346.18L148.772,346.158L149.277,346.138L149.781,346.115L150.286,346.092L151.799,346.018L152.808,345.962L153.313,345.933L153.817,345.9L154.322,345.87L155.835,345.765L156.34,345.725L156.844,345.688L157.853,345.603L158.358,345.558L158.863,345.51L159.367,345.462L160.376,345.358L160.881,345.303L161.385,345.245L161.89,345.185L162.394,345.123L162.899,345.058L163.403,344.99L164.412,344.845L164.917,344.768L165.421,344.688L165.926,344.605L166.43,344.518L166.935,344.428L167.439,344.333L167.944,344.235L168.448,344.133L168.953,344.027L169.457,343.915L169.962,343.8L170.466,343.68L170.971,343.555L171.475,343.425L171.98,343.29L172.484,343.148L172.989,343.003L173.493,342.85L173.998,342.69L174.502,342.525L175.007,342.353L175.511,342.173L176.016,341.988L176.521,341.793L177.025,341.59L177.53,341.383L178.034,341.165L178.539,340.938L179.043,340.703L179.548,340.458L180.052,340.203L180.557,339.94L181.061,339.665L181.565,339.38L182.07,339.085L182.575,338.777L183.079,338.46L183.583,338.128L184.088,337.785L184.593,337.43L185.097,337.06L185.602,336.678L186.106,336.283L186.611,335.87L187.115,335.445L187.62,335.005L188.124,334.55L188.629,334.078L189.133,333.587L189.638,333.083L190.142,332.56L190.647,332.02L191.151,331.462L191.656,330.888L192.16,330.293L192.665,329.678L193.169,329.045L193.674,328.393L194.179,327.72L194.683,327.027L195.188,326.315L195.692,325.58L196.196,324.825L196.701,324.05L197.206,323.253L197.71,322.435L198.214,321.598L198.719,320.738L199.224,319.858L199.728,318.955L200.232,318.033L200.737,317.09L201.242,316.128L201.746,315.145L202.25,314.143L202.755,313.123L203.26,312.083L203.764,311.027L204.269,309.955L204.773,308.865L205.278,307.763L205.782,306.645L206.287,305.518L206.791,304.378L207.296,303.228L207.8,302.068L208.305,300.902L208.809,299.733L209.818,297.383L210.323,296.205L210.827,295.033L211.332,293.863L211.837,292.7L212.341,291.548L212.845,290.405L213.35,289.275L213.855,288.163L214.359,287.068L214.863,285.993L215.368,284.943L215.873,283.918L216.377,282.92L216.881,281.955L217.386,281.023L217.891,280.128L218.395,279.27L218.899,278.453L219.404,277.678L219.909,276.95L220.413,276.268L220.918,275.635L221.422,275.055L221.927,274.525L222.431,274.053L222.936,273.635L223.44,273.275L223.945,272.973L224.449,272.73L224.954,272.55L225.458,272.428L225.963,272.37L226.467,272.373L226.972,272.435L227.476,272.56L227.981,272.748L228.485,272.995L228.99,273.3L229.494,273.668L229.999,274.09L230.504,274.57L231.008,275.108L231.512,275.695L232.017,276.338L232.522,277.027L233.026,277.768L233.53,278.553L234.035,279.38L234.54,280.25L235.044,281.16L235.548,282.105L236.053,283.085L236.558,284.098L237.062,285.138L237.567,286.203L238.071,287.295L238.576,288.405L239.08,289.538L239.585,290.683L240.089,291.845L240.594,293.015L241.098,294.198L241.603,295.385L242.107,296.575L242.612,297.77L243.621,300.155L244.125,301.345L244.63,302.527L245.134,303.703L245.639,304.868L246.143,306.025L246.648,307.168L247.153,308.3L247.657,309.415L248.161,310.518L248.666,311.603L249.171,312.67L249.675,313.72L250.18,314.75L250.685,315.76L251.188,316.75L251.693,317.72L252.198,318.67L252.702,319.598L253.208,320.505L253.71,321.39L254.215,322.253L254.72,323.092L255.225,323.913L255.73,324.71L256.233,325.485L256.738,326.238L257.243,326.97L257.748,327.683L258.253,328.373L258.755,329.04L259.26,329.69L259.765,330.318L260.27,330.928L260.775,331.515L261.28,332.085L261.783,332.638L262.288,333.17L262.793,333.685L263.298,334.183L263.803,334.665L264.305,335.128L264.81,335.575L265.315,336.008L265.82,336.425L266.325,336.825L266.828,337.212L267.333,337.587L267.838,337.945L268.342,338.293L268.848,338.625L269.35,338.948L269.855,339.255L270.36,339.553L270.865,339.837L271.37,340.113L271.873,340.378L272.378,340.633L272.883,340.878L273.388,341.113L273.893,341.337L274.395,341.555L274.9,341.763L275.405,341.962L275.91,342.155L276.415,342.34L276.918,342.518L277.423,342.688L277.928,342.853L278.433,343.008L278.938,343.16L279.443,343.305L279.945,343.443L280.45,343.575L280.955,343.703L281.46,343.825L281.965,343.943L282.467,344.058L282.973,344.165L283.478,344.268L283.983,344.368L284.488,344.462L284.99,344.555L285.495,344.643L286,344.728L286.505,344.808L287.01,344.885L287.513,344.958L288.018,345.03L288.523,345.098L289.027,345.163L289.533,345.225L290.035,345.285L290.54,345.342L291.045,345.398L292.055,345.503L292.558,345.55L293.568,345.64L294.578,345.725L295.083,345.763L295.585,345.8L296.09,345.837L296.595,345.87L297.1,345.905L297.605,345.935L298.108,345.965L298.613,345.995L299.623,346.05L300.128,346.075L300.63,346.1L301.64,346.145L302.145,346.165L302.65,346.188L303.152,346.208L305.173,346.277L305.675,346.293L307.19,346.337L307.695,346.35L308.198,346.363L309.208,346.388L310.217,346.408L310.72,346.42L311.225,346.43L311.73,346.438L312.235,346.448L312.74,346.455L313.245,346.465L313.748,346.473L315.263,346.495L315.768,346.5L316.27,346.508L316.775,346.513L317.28,346.52L318.29,346.53L318.793,346.535L320.308,346.55L320.813,346.553L321.315,346.558L321.82,346.563L322.325,346.565L322.83,346.57L323.335,346.573L323.837,346.575L324.342,346.58L325.858,346.587L326.36,346.59L328.38,346.6L328.883,346.603L329.893,346.608L330.398,346.608L331.408,346.613L331.91,346.615L332.415,346.615L332.92,346.618L333.425,346.618L333.93,346.62L334.433,346.62L334.938,346.623L335.443,346.623L335.948,346.625L336.453,346.625L336.955,346.628L337.46,346.628L337.965,346.63L338.975,346.63L339.478,346.633L340.488,346.633L340.993,346.635L342,346.635L342.505,346.638L344.523,346.638L345.027,346.64L347.045,346.64L347.55,346.643L350.073,346.643L350.578,346.645L354.615,346.645L355.118,346.648L362.685,346.648L363.19,346.65L396.993,346.65L397.498,346.652L573.068,346.652" style="fill:none;fill-rule:nonzero;stroke:rgb(65,0,235);stroke-width:3.5px;"/>
    <path d="M69.059,346.652L94.284,346.652L94.789,346.65L104.879,346.65L105.384,346.648L109.924,346.648L110.429,346.645L113.456,346.645L113.961,346.643L116.483,346.643L116.988,346.64L118.501,346.64L119.006,346.638L120.015,346.638L120.519,346.635L122.033,346.635L122.537,346.633L123.042,346.633L123.546,346.63L124.555,346.63L125.06,346.628L125.565,346.628L126.069,346.625L126.574,346.625L127.078,346.623L127.583,346.623L128.087,346.62L128.592,346.62L129.601,346.615L130.105,346.615L131.619,346.608L132.123,346.608L137.168,346.583L137.673,346.578L138.682,346.573L139.186,346.568L139.691,346.565L140.195,346.56L140.7,346.558L144.736,346.518L145.241,346.51L145.745,346.505L146.25,346.498L146.754,346.493L148.268,346.47L148.772,346.46L149.781,346.445L150.286,346.435L152.304,346.395L152.808,346.383L153.313,346.373L154.322,346.348L154.826,346.333L155.331,346.32L156.844,346.275L158.358,346.223L158.863,346.205L159.872,346.165L160.376,346.143L160.881,346.123L161.385,346.098L161.89,346.075L162.394,346.05L162.899,346.023L163.403,345.998L164.917,345.908L165.926,345.842L166.43,345.808L167.439,345.733L167.944,345.693L168.448,345.652L168.953,345.61L169.457,345.565L169.962,345.518L170.971,345.418L171.475,345.365L171.98,345.31L172.989,345.19L173.493,345.128L173.998,345.063L174.502,344.995L175.511,344.85L176.016,344.773L176.521,344.693L177.025,344.608L177.53,344.52L178.034,344.43L178.539,344.335L179.043,344.235L179.548,344.133L180.052,344.025L180.557,343.913L181.061,343.795L181.565,343.673L182.07,343.548L182.575,343.415L183.079,343.277L183.583,343.133L184.088,342.985L184.593,342.828L185.097,342.665L185.602,342.498L186.106,342.32L186.611,342.138L187.115,341.948L187.62,341.748L188.124,341.54L188.629,341.325L189.133,341.1L189.638,340.868L190.142,340.625L190.647,340.37L191.151,340.108L191.656,339.833L192.16,339.548L192.665,339.25L193.169,338.943L193.674,338.62L194.179,338.285L194.683,337.938L195.188,337.575L195.692,337.2L196.196,336.81L196.701,336.402L197.206,335.98L197.71,335.54L198.214,335.085L198.719,334.61L199.224,334.118L199.728,333.608L200.232,333.075L200.737,332.525L201.242,331.953L201.746,331.358L202.25,330.74L202.755,330.103L203.26,329.438L203.764,328.75L204.269,328.038L204.773,327.298L205.278,326.533L205.782,325.74L206.287,324.918L206.791,324.068L207.296,323.188L207.8,322.277L208.305,321.335L208.809,320.36L209.314,319.353L209.818,318.313L210.323,317.238L210.827,316.128L211.332,314.983L211.837,313.8L212.341,312.583L212.845,311.325L213.35,310.03L213.855,308.695L214.359,307.323L214.863,305.91L215.368,304.455L215.873,302.963L216.377,301.425L216.881,299.85L217.386,298.23L217.891,296.57L218.395,294.87L218.899,293.125L219.404,291.34L219.909,289.513L220.413,287.645L220.918,285.735L221.422,283.783L221.927,281.793L222.431,279.763L222.936,277.693L223.44,275.585L223.945,273.44L224.449,271.26L224.954,269.043L225.458,266.793L225.963,264.51L226.467,262.195L226.972,259.85L227.476,257.478L227.981,255.077L228.485,252.653L228.99,250.208L229.494,247.738L229.999,245.251L230.504,242.747L231.008,240.228L231.512,237.696L232.017,235.154L232.522,232.603L233.026,230.047L233.53,227.487L234.035,224.926L234.54,222.366L235.044,219.81L235.548,217.26L236.053,214.718L236.558,212.186L237.062,209.667L237.567,207.163L238.071,204.676L238.576,202.208L239.08,199.762L239.585,197.339L240.089,194.94L240.594,192.569L241.098,190.226L241.603,187.914L242.107,185.634L242.612,183.386L243.116,181.173L243.621,178.996L244.125,176.856L244.63,174.754L245.134,172.69L245.639,170.666L246.143,168.683L246.648,166.74L247.153,164.839L247.657,162.979L248.161,161.162L248.666,159.387L249.171,157.655L249.675,155.965L250.18,154.318L250.685,152.713L251.188,151.151L251.693,149.631L252.198,148.152L252.702,146.715L253.208,145.319L253.71,143.963L254.215,142.647L254.72,141.371L255.225,140.133L255.73,138.934L256.233,137.772L256.738,136.647L257.243,135.558L257.748,134.504L258.253,133.485L258.755,132.5L259.26,131.548L259.765,130.628L260.27,129.74L260.775,128.882L261.28,128.055L261.783,127.256L262.288,126.486L262.793,125.744L263.298,125.028L263.803,124.338L264.305,123.673L264.81,123.032L265.315,122.415L265.82,121.822L266.325,121.25L266.828,120.7L267.333,120.171L267.838,119.661L268.342,119.171L268.848,118.7L269.35,118.248L269.855,117.812L270.36,117.394L270.865,116.991L271.37,116.605L271.873,116.234L272.378,115.877L272.883,115.534L273.388,115.205L273.893,114.889L274.395,114.586L274.9,114.295L275.405,114.015L275.91,113.747L276.415,113.49L276.918,113.242L277.423,113.005L277.928,112.778L278.433,112.559L278.938,112.35L279.443,112.149L279.945,111.957L280.45,111.772L280.955,111.595L281.46,111.424L281.965,111.262L282.467,111.105L282.973,110.956L283.478,110.812L283.983,110.674L284.488,110.542L284.99,110.415L285.495,110.294L286,110.178L286.505,110.067L287.01,109.96L287.513,109.857L288.018,109.759L288.523,109.665L289.027,109.575L289.533,109.489L290.035,109.406L290.54,109.327L291.045,109.251L291.55,109.178L292.055,109.109L292.558,109.042L293.063,108.978L293.568,108.916L294.073,108.858L294.578,108.801L295.083,108.747L295.585,108.696L296.09,108.646L296.595,108.599L297.1,108.554L297.605,108.51L298.108,108.468L298.613,108.429L299.118,108.39L299.623,108.354L300.128,108.319L300.63,108.285L301.135,108.253L301.64,108.222L302.145,108.193L302.65,108.164L303.152,108.137L303.658,108.111L304.163,108.087L304.668,108.063L305.173,108.04L305.675,108.018L306.18,107.997L306.685,107.977L307.19,107.958L307.695,107.94L308.198,107.922L308.703,107.905L309.208,107.889L309.712,107.874L310.217,107.859L310.72,107.845L311.225,107.831L311.73,107.818L312.235,107.806L312.74,107.794L313.245,107.783L313.748,107.772L314.253,107.761L314.758,107.751L315.263,107.742L315.768,107.732L316.27,107.724L316.775,107.715L317.28,107.707L317.785,107.699L318.29,107.692L318.793,107.685L319.298,107.678L319.803,107.671L320.308,107.665L320.813,107.659L321.315,107.654L321.82,107.648L322.325,107.643L322.83,107.638L323.335,107.633L323.837,107.629L324.848,107.62L325.858,107.612L326.36,107.608L326.865,107.605L328.38,107.595L328.883,107.592L329.893,107.587L330.398,107.584L330.902,107.581L331.408,107.579L331.91,107.577L332.92,107.572L333.425,107.57L333.93,107.569L334.433,107.567L335.443,107.563L336.453,107.56L336.955,107.559L337.965,107.556L338.975,107.553L339.478,107.552L339.983,107.551L340.488,107.549L341.498,107.548L342,107.546L342.505,107.546L343.01,107.545L343.515,107.544L346.038,107.54L346.543,107.54L347.045,107.539L347.55,107.538L348.055,107.537L349.57,107.536L351.083,107.534L351.587,107.534L352.595,107.533L353.1,107.533L353.605,107.533L354.615,107.532L355.118,107.531L357.138,107.531L359.66,107.529L361.173,107.528L361.678,107.528L362.685,107.528L363.19,107.528L364.2,107.528L364.705,107.528L365.21,107.527L365.712,107.527L366.217,107.527L366.723,107.527L367.228,107.527L367.733,107.527L368.235,107.527L369.245,107.527L369.75,107.526L370.255,107.526L370.758,107.526L371.768,107.526L372.273,107.526L373.28,107.526L373.785,107.525L375.3,107.525L375.803,107.525L377.823,107.525L378.325,107.525L380.345,107.525L380.848,107.525L383.373,107.525L383.875,107.525L387.408,107.525L387.913,107.524L392.453,107.524L392.958,107.524L399.01,107.524L399.515,107.524L407.587,107.524L408.092,107.524L418.183,107.524L418.688,107.523L429.788,107.523L430.29,107.523L442.4,107.523L442.905,107.523L455.013,107.523L455.518,107.522L467.625,107.522L468.13,107.522L480.743,107.522L481.248,107.522L493.355,107.522L493.86,107.522L505.967,107.522L506.473,107.522L519.085,107.522L519.59,107.521L531.698,107.521L532.203,107.521L544.815,107.521L545.32,107.521L557.428,107.521L557.933,107.521L570.043,107.521L570.545,107.52L573.068,107.52" style="fill:none;fill-rule:nonzero;stroke:rgb(221,68,17);stroke-width:2px;"/>
    <g transform="matrix(1,0,0,1,69.0588,35.691)">
        <text x="0px" y="0px" style="font-family:'ArialMT', 'Arial', sans-serif;font-size:14.75px;">susceptibles</text>
    </g>
    <g transform="matrix(1,0,0,1,371.767,100.207)">
        <text x="0px" y="0px" style="font-family:'ArialMT', 'Arial', sans-serif;font-size:14.75px;">recovereds</text>
    </g>
    <g transform="matrix(1,0,0,1,139.601,306.51)">
        <text x="0px" y="0px" style="font-family:'ArialMT', 'Arial', sans-serif;font-size:14.75px;">infectives</text>
    </g>
    <g transform="matrix(1,0,0,1,447.445,36.691)">
        <g>
            <text x="0px" y="0px" style="font-family:'ArialMT', 'Arial', sans-serif;font-size:14.75px;">duration = 3.0 <tspan x="94.449px " y="0px ">T</tspan></text>
            <text x="103.459px" y="2px" style="font-family:'ArialMT', 'Arial', sans-serif;font-size:10px;">SP</text>
        </g>
    </g>
</svg>
